# xmcd
#
# Track frame offsets: 
#        183
#        17698
#        49348
#
# Disc length: 1019 seconds
#
# Revision: 2
# Processed by: cddbd v1.5.2PL0 Copyright (c) Steve Scherf et al.
# Submitted via: ExactAudioCopy v1.3
#
DISCID=1e03f903
DTITLE=Dance 2 Trance - Take A Free Fall
DYEAR=1993
DGENRE=Trance
TTITLE0=Take A Free Fall (Radio Edit)
TTITLE1=Take A Free Fall (Club Mix)
TTITLE2=Psychedelic Solution (Extended Version)
EXTD=
EXTT0=
EXTT1=
EXTT2=
PLAYORDER=
